<svg xmlns="http://www.w3.org/2000/svg" width="48" height="48" viewBox="0 0 24 24"><path d="M11.666 2.005c-5.046.165-9.292 4.246-9.641 9.283-.369 5.329 3.442 9.832 8.481 10.589V14.65H8.892a1.314 1.314 0 1 1 0-2.628h1.613v-1.749c0-2.896 1.411-4.167 3.818-4.167.357 0 .662.008.921.021a1.193 1.193 0 0 1 1.129 1.198 1.2 1.2 0 0 1-1.2 1.2h-.442c-1.022 0-1.379.969-1.379 2.061v1.437h1.87a.964.964 0 0 1 .953 1.111l-.108.701a.964.964 0 0 1-.953.817h-1.762v7.247C18.235 21.236 22 17.062 22 12c0-5.634-4.659-10.179-10.334-9.995z" style="fill: #4cffcf;"/></svg>