<svg xmlns="http://www.w3.org/2000/svg" width="48" height="48" viewBox="0 0 105.833 105.833"><path d="m17.91 89.325-.919-.28 13.019-12.84 13.018-12.84 2.85 2.861c3.36 3.374 4.851 4.281 7.037 4.281 2.185 0 3.676-.907 7.036-4.28l2.85-2.863 13.019 12.84 13.018 12.84-.919.281c-1.321.403-68.687.403-70.008 0zm-4.45-4.407c-.275-.99-.321-49.28-.048-50.236.138-.481 1.655.938 13.271 12.418L39.798 60.06 26.923 72.938c-7.081 7.083-12.951 12.877-13.044 12.877-.093 0-.281-.403-.418-.897zm65.447-11.98L66.032 60.063l13.115-12.946c10.258-10.127 13.15-12.858 13.277-12.538.09.225.17 11.442.179 24.926.014 23.36-.059 26.311-.652 26.311-.093 0-5.963-5.794-13.044-12.876zM34.246 48.327 16.502 30.691l.805-.364c.708-.32 4.996-.363 35.608-.363 30.636 0 34.899.044 35.609.364l.806.364-17.752 17.635c-17.323 17.21-17.774 17.635-18.67 17.635-.896 0-1.345-.424-18.662-17.636z" style="fill: #4cffcf;"/></svg>