<svg xmlns="http://www.w3.org/2000/svg" width="48" height="48" viewBox="0 0 105.833 105.833"><path d="M64.517 90.458c-6.846-1.276-12.581-3.244-19.242-6.604-13.332-6.724-22.259-17.457-27.468-33.026-2.113-6.318-2.899-10.555-2.913-15.725-.012-4.156.08-4.702 1.17-6.921 1.366-2.783 5.787-7.664 7.811-8.625 1.883-.894 4.268-.825 7.009.2 3.99 1.493 4.085 1.655 6.123 10.424 1.117 4.806 1.722 8.266 1.579 9.025-.157.826-1.36 2.348-3.662 4.632-1.886 1.87-3.43 3.582-3.43 3.803 0 .924 2.573 5.967 4.747 9.307 2.98 4.58 8.005 9.604 12.585 12.585 3.283 2.137 8.38 4.746 9.271 4.746.202 0 1.913-1.545 3.804-3.433 2.222-2.22 3.872-3.526 4.667-3.694.812-.172 3.887.369 9.025 1.587 8.763 2.077 8.938 2.18 10.424 6.15 1.025 2.742 1.093 5.127.2 7.01-.959 2.02-5.841 6.445-8.602 7.796-2.005.98-2.98 1.184-6.101 1.27-2.043.058-5.192-.17-6.997-.507zm.434-36.78c-.352-.502-.643-1.564-.648-2.36-.012-1.883-1.34-4.781-2.988-6.522-1.625-1.716-4.939-3.325-6.86-3.33-2.063-.006-3.27-.976-3.27-2.63 0-2.193 1.12-2.878 4.186-2.558 3.354.35 7.185 2.176 9.567 4.558 3.5 3.5 5.715 10.307 4.137 12.715-.907 1.385-3.194 1.454-4.124.126zm10.665 0c-.351-.502-.638-1.663-.638-2.581 0-4.505-2.604-10.264-6.32-13.98-3.717-3.717-9.477-6.32-13.981-6.32-2.293 0-3.492-.916-3.492-2.667 0-2.632 2.348-3.234 8-2.052 1.579.33 4.44 1.371 6.358 2.312 6.924 3.398 12.576 10.666 14.152 18.2 1.183 5.65.58 7.999-2.05 7.999-.971 0-1.583-.275-2.029-.912zm10.666 0c-.364-.52-.639-1.764-.639-2.89 0-4.72-2.228-11.671-5.19-16.192-1.979-3.02-6.246-7.29-9.255-9.262-4.609-3.02-11.412-5.203-16.212-5.203-2.606 0-3.801-.843-3.801-2.68 0-2.237 1.295-2.833 5.454-2.511 12.893.997 24.497 8.867 30.383 20.606 3.068 6.119 4.877 15.728 3.389 18-.912 1.39-3.196 1.463-4.13.131z" style="fill: #4cffcf;"/></svg>